<svg width="50" height="50" viewBox="0 0 50 50" fill="none" xmlns="http://www.w3.org/2000/svg">
<rect x="0.5" y="0.5" width="49" height="49" rx="4.5" stroke="#323232"/>
<path d="M43 33H37C35.9391 33 34.9217 33.4214 34.1716 34.1716C33.4214 34.9217 33 35.9391 33 37V43M43 43V43.02M25 15V21C25 22.0609 24.5786 23.0783 23.8284 23.8284C23.0783 24.5786 22.0609 25 21 25H15M7 25H7.02M25 7H25.02M25 33V33.02M33 25H35M43 25V25.02M25 43V41M9 7H15C16.1046 7 17 7.89543 17 9V15C17 16.1046 16.1046 17 15 17H9C7.89543 17 7 16.1046 7 15V9C7 7.89543 7.89543 7 9 7ZM35 7H41C42.1046 7 43 7.89543 43 9V15C43 16.1046 42.1046 17 41 17H35C33.8954 17 33 16.1046 33 15V9C33 7.89543 33.8954 7 35 7ZM9 33H15C16.1046 33 17 33.8954 17 35V41C17 42.1046 16.1046 43 15 43H9C7.89543 43 7 42.1046 7 41V35C7 33.8954 7.89543 33 9 33Z" stroke="#323232" stroke-width="3.27273" stroke-linecap="round" stroke-linejoin="round"/>
</svg>
