<svg xmlns="http://www.w3.org/2000/svg" width="220" height="64" viewBox="0 0 880 256" role="img" aria-label="WASF">
  <defs>
    <linearGradient id="navGrad" x1="230" y1="0" x2="782" y2="0" gradientUnits="userSpaceOnUse">
      <stop offset="0%" stop-color="#f08c28"/>
      <stop offset="24%" stop-color="#c3327f"/>
      <stop offset="50%" stop-color="#6b3ea5"/>
      <stop offset="75%" stop-color="#2f6ec8"/>
      <stop offset="100%" stop-color="#1fb0af"/>
    </linearGradient>
  </defs>
  <g transform="scale(0.242) translate(0,-15)">
    <path fill-rule="evenodd" fill="url(#navGrad)" d="M 229.89,333.33 C 225.10,357.28 238.51,409.00 247.13,442.53 C 255.75,476.05 266.28,501.92 281.61,534.48 C 296.93,567.05 319.92,612.07 339.08,637.93 C 358.24,663.79 375.48,681.03 396.55,689.66 C 417.62,698.28 448.28,694.44 465.52,689.66 C 482.76,684.87 487.55,659.96 500.00,660.92 C 512.45,661.88 518.20,691.57 540.23,695.40 C 562.26,699.23 603.45,705.94 632.18,683.91 C 660.92,661.88 687.74,617.82 712.64,563.22 C 737.55,508.62 775.86,398.47 781.61,356.32 C 787.36,314.18 775.86,325.67 747.13,310.34 C 718.39,295.02 621.65,258.62 609.20,264.37 C 596.74,270.11 660.92,322.80 672.41,344.83 C 683.91,366.86 683.91,367.82 678.16,396.55 C 672.41,425.29 654.21,481.80 637.93,517.24 C 621.65,552.68 594.83,602.49 580.46,609.20 C 566.09,615.90 550.77,582.38 551.72,557.47 C 552.68,532.57 580.46,490.42 586.21,459.77 C 591.95,429.12 591.95,393.68 586.21,373.56 C 580.46,353.45 573.75,344.83 551.72,339.08 C 529.69,333.33 475.10,334.29 454.02,339.08 C 432.95,343.87 431.03,350.57 425.29,367.82 C 419.54,385.06 413.79,409.96 419.54,442.53 C 425.29,475.10 458.81,536.40 459.77,563.22 C 460.73,590.04 441.57,613.98 425.29,603.45 C 409.00,592.91 378.35,539.27 362.07,500.00 C 345.79,460.73 319.92,407.09 327.59,367.82 C 335.25,328.54 416.67,275.86 408.05,264.37 C 399.43,252.87 305.56,287.36 275.86,298.85 C 246.17,310.34 234.67,309.39 229.89,333.33 Z M 485.92,402.30 C 485.92,375.75 494.84,354.02 505.75,354.02 C 516.65,354.02 525.57,375.75 525.57,402.30 C 525.57,428.85 516.65,450.57 505.75,450.57 C 494.84,450.57 485.92,428.85 485.92,402.30 Z"/>
  </g>
  <text x="255" y="165" font-family="Arial, 'Helvetica Neue', sans-serif" font-weight="800" font-size="130" fill="#333333">WASF</text>
</svg>
