<svg width="152" height="152" viewBox="0 0 152 152" fill="none" xmlns="http://www.w3.org/2000/svg">
<rect x="1.5" y="1.5" width="149" height="149" rx="74.5" fill="white" stroke="#492E98" stroke-width="3"/>
<line x1="36.1533" y1="48.3676" x2="80.5997" y2="22.7064" stroke="#492E98" stroke-width="4.29317"/>
<line x1="77.4824" y1="128.809" x2="121.929" y2="103.148" stroke="#492E98" stroke-width="4.29317"/>
<line x1="33.2382" y1="99.3403" x2="75.1675" y2="33.2528" stroke="#492E98" stroke-width="4.29317"/>
<line x1="79.629" y1="24.8422" x2="124.075" y2="50.5033" stroke="#492E98" stroke-width="4.29317"/>
<line x1="31.7745" y1="103.149" x2="76.2209" y2="128.81" stroke="#492E98" stroke-width="4.29317"/>
<line x1="79.629" y1="77.0473" x2="124.075" y2="102.708" stroke="#492E98" stroke-width="4.29317"/>
<line x1="122.03" y1="50.6289" x2="122.03" y2="101.951" stroke="#492E98" stroke-width="4.29317"/>
<line x1="63.3291" y1="52.8319" x2="114.651" y2="52.8319" stroke="#492E98" stroke-width="4.29317"/>
<line x1="30.673" y1="50.6289" x2="30.6729" y2="101.951" stroke="#492E98" stroke-width="4.29317"/>
<line x1="76.3517" y1="78.9063" x2="76.3517" y2="130.229" stroke="#492E98" stroke-width="4.29317"/>
<line x1="76.2217" y1="78.5895" x2="31.7753" y2="104.251" stroke="#492E98" stroke-width="4.29317"/>
<line x1="119.725" y1="54.6617" x2="75.2782" y2="80.3229" stroke="#492E98" stroke-width="4.29317"/>
<circle cx="76.3805" cy="26.7008" r="6.55423" fill="#492E98" stroke="#492E98" stroke-width="4.29317"/>
<circle cx="30.7008" cy="52.8043" r="6.55423" fill="#492E98" stroke="#492E98" stroke-width="4.29317"/>
<circle cx="76.3805" cy="76.7301" r="6.55423" fill="#492E98" stroke="#492E98" stroke-width="4.29317"/>
<circle cx="61.1539" cy="54.9782" r="6.55423" fill="#492E98" stroke="#492E98" stroke-width="4.29317"/>
<circle cx="76.3805" cy="126.759" r="6.55423" fill="#492E98" stroke="#492E98" stroke-width="4.29317"/>
<circle cx="122.059" cy="52.8043" r="6.55423" fill="#492E98" stroke="#492E98" stroke-width="4.29317"/>
<circle cx="122.059" cy="102.832" r="6.55423" fill="#492E98" stroke="#492E98" stroke-width="4.29317"/>
<circle cx="30.7008" cy="102.832" r="6.55423" fill="#492E98" stroke="#492E98" stroke-width="4.29317"/>
</svg>
