<?xml version="1.0" encoding="UTF-8"?>
<svg id="Buddy" xmlns="http://www.w3.org/2000/svg" viewBox="0 0 119.37 97.79">
  <defs>
    <style>
      .cls-1 {
        fill: #333233;
      }

      .cls-2 {
        fill: #fff;
      }

      .cls-3 {
        fill: none;
        stroke: #333233;
        stroke-linecap: round;
        stroke-linejoin: round;
        stroke-width: .5px;
      }

      .cls-4 {
        fill: #ffcc03;
      }
    </style>
  </defs>
  <path class="cls-4" d="M56.53,55.9l-4.96,34.45c-.1.71-.68,1.26-1.39,1.33l-5.71.53c-.42.04-.47.63-.07.75l6.53,1.87,6.88,1.97c.53.15,1.07-.15,1.22-.68l1.55-5.4,8.91-31.1-12.96-3.71Z"/>
  <path class="cls-4" d="M78.69,93.31l4.72-34.49h-13.48v37.97c0,.55.44.99.99.99h13.95c.42,0,.53-.58.14-.74l-5.35-2.08c-.67-.26-1.07-.95-.98-1.66Z"/>
  <polygon class="cls-1" points="65.89 72.21 63.61 80.16 53.39 77.8 54.07 73.02 65.89 72.21"/>
  <polygon class="cls-1" points="81.74 71.12 80.64 79.18 69.95 80.49 69.95 71.93 81.74 71.12"/>
  <path class="cls-4" d="M86.96,0h-36.87C47.85,0,45.79,1.19,44.67,3.13l-18.44,31.93c-1.12,1.93-1.12,4.32,0,6.25l18.44,31.93c1.12,1.93,3.18,3.13,5.42,3.13h36.87c2.23,0,4.3-1.19,5.42-3.13l18.44-31.93c1.12-1.93,1.12-4.32,0-6.25L92.37,3.13C91.26,1.19,89.19,0,86.96,0Z"/>
  <g>
    <circle class="cls-2" cx="52.21" cy="37.2" r="8.09"/>
    <path class="cls-1" d="M52.21,42.87c-3.13,0-5.67-2.54-5.67-5.67s2.54-5.67,5.67-5.67,5.67,2.55,5.67,5.67-2.54,5.67-5.67,5.67Z"/>
    <circle class="cls-2" cx="84.84" cy="37.2" r="8.09"/>
    <path class="cls-1" d="M84.84,42.87c-3.13,0-5.67-2.54-5.67-5.67s2.54-5.67,5.67-5.67,5.67,2.55,5.67,5.67-2.54,5.67-5.67,5.67Z"/>
    <path class="cls-3" d="M75.47,41.62h0c-3.71,4.12-10.18,4.12-13.89,0h0"/>
  </g>
  <path class="cls-3" d="M60.46,5.01c-.43.66-.86,1.32-1.2,2.03-2.35,4.37.37,12.06,5.94,10.62,1.42-.44,2.21-2.11,2.41-3.43.12-.59.16-.95.26-.98.46.32,1.2,1.85,1.96,2.34,5.63,4.62,9.78-3.74,5.57-7.89,4.47,5.64,10.76-.88,3.41-4.28"/>
  <path class="cls-4" d="M109.86,86.92c.68-14.02-4.93-27.6-15.3-37.06,2.12-2.33,4.25-4.66,6.37-6.99,12.45,11.36,19.19,27.67,18.37,44.5-3.15-.15-6.3-.3-9.45-.46Z"/>
  <path class="cls-4" d="M9.01,26.42c6.74,12.31,18.62,20.96,32.4,23.61-.6,3.1-1.19,6.19-1.79,9.29C23.08,56.14,8.81,45.74.72,30.96c2.77-1.52,5.53-3.03,8.3-4.55Z"/>
  <line class="cls-3" x1="28.97" y1="45.6" x2="36.33" y2="58.36"/>
  <line class="cls-3" x1="101.26" y1="57.43" x2="106.27" y2="48.7"/>
  <circle class="cls-4" cx="117.68" cy="87.28" r="1.63"/>
  <circle class="cls-4" cx="111.47" cy="87.03" r="1.63"/>
  <circle class="cls-4" cx="113.48" cy="87.24" r="1.63"/>
  <circle class="cls-4" cx="115.65" cy="87.34" r="1.63"/>
  <path class="cls-4" d="M110.73,79.19c.48.73.73,1.8.26,2.63-.2.35-.77.66-1.11.83-.44.21-.97.33-1.44.42s-1.06.05-1.47-.18c-.23-.13-.49-.32-.45-.62.03-.2.26-.36.42-.47,1.31-.92,2.82-1.6,3.51-3.13.12.14.19.37.28.52Z"/>
  <path class="cls-3" d="M112.35,88.11s.23-3.63.15-5.04"/>
  <path class="cls-3" d="M114.49,88.23s.23-3.63.15-5.04"/>
  <path class="cls-3" d="M116.71,88.23s.23-3.63.15-5.04"/>
  <ellipse class="cls-4" cx="1.92" cy="29.86" rx="1.6" ry="2.72" transform="translate(-14.18 4.64) rotate(-28.87)"/>
  <ellipse class="cls-4" cx="3.76" cy="28.85" rx="1.6" ry="2.72" transform="translate(-13.46 5.4) rotate(-28.87)"/>
  <path class="cls-4" d="M7,27.07c.73,1.32.69,2.73-.09,3.15-.35.19-.79.15-1.24-.08-.54-.27-1.08-.81-1.47-1.53-.73-1.32-.69-2.73.09-3.15s1.99.29,2.71,1.61Z"/>
  <ellipse class="cls-4" cx="7.43" cy="26.82" rx="1.6" ry="2.72" transform="translate(-12.03 6.92) rotate(-28.87)"/>
  <path class="cls-3" d="M3.83,31.16c-.05.5-.25.9-.6,1.09-.62.34-1.52-.05-2.22-.89"/>
  <path class="cls-3" d="M5.67,30.14c-.05.5-.25.9-.6,1.09s-.79.15-1.24-.08"/>
  <path class="cls-3" d="M7.19,29.98c-.08.1-.18.18-.29.24-.35.19-.79.15-1.24-.08"/>
  <path class="cls-4" d="M11.9,31.96c.02-1.51.12-3.4.8-4.88.36-.87.95-1.61,1.3-2.41,0-.06-.02-.19-.02-.26-.43-.58-1.47-.16-1.93.05-.37.16-.75.35-.99.68-.42.66-.69,1.43-1.42,1.84-2.88,1.62-1.11,7.09,2.19,5.08l.07-.1Z"/>
  <path class="cls-3" d="M9.38,27.07c-1.98.82-2.85,3.09-1.66,5.08"/>
  <line class="cls-3" x1="3.83" y1="31.16" x2="1.85" y2="27.56"/>
  <line class="cls-3" x1="5.67" y1="30.14" x2="3.69" y2="26.55"/>
  <line class="cls-3" x1="5.52" y1="25.53" x2="7.39" y2="28.92"/>
</svg>