<svg width="161" height="167" viewBox="0 0 161 167" fill="none" xmlns="http://www.w3.org/2000/svg">
<g style="mix-blend-mode:multiply">
<path d="M69.4426 0.00452423L5.625 36.8496L23.8203 68.3647L87.6378 31.5196L69.4426 0.00452423Z" fill="#8883BE"/>
</g>
<g style="mix-blend-mode:multiply">
<path d="M36.9999 45.7051H0.609375V119.395H36.9999V45.7051Z" fill="#8883BE"/>
</g>
<path fill-rule="evenodd" clip-rule="evenodd" d="M10.9355 45.7051L23.9662 68.2756L36.9969 60.7513V45.7051H10.9355Z" fill="#544E9C"/>
<g style="mix-blend-mode:multiply">
<path d="M79.7646 0.00050575L61.5693 31.5156L125.387 68.3607L143.582 36.8456L79.7646 0.00050575Z" fill="#8883BE"/>
</g>
<g style="mix-blend-mode:multiply">
<path d="M125.842 97.6959L62.0244 134.541L80.2197 166.056L144.037 129.211L125.842 97.6959Z" fill="#8883BE"/>
</g>
<g style="mix-blend-mode:multiply">
<path d="M24.4169 97.6079L6.22168 129.123L70.0392 165.968L88.2345 134.453L24.4169 97.6079Z" fill="#8883BE"/>
</g>
<path fill-rule="evenodd" clip-rule="evenodd" d="M74.6059 8.94531L87.6366 31.5158L74.6059 39.0401L61.5752 31.5158L74.6059 8.94531Z" fill="#544E9C"/>
<path fill-rule="evenodd" clip-rule="evenodd" d="M75.2065 157.026L62.1758 134.456L75.2065 126.932L88.2371 134.456L75.2065 157.026Z" fill="#544E9C"/>
<g style="mix-blend-mode:multiply">
<path d="M149.203 46.5762H112.812V120.266H149.203V46.5762Z" fill="#8883BE"/>
</g>
<path fill-rule="evenodd" clip-rule="evenodd" d="M138.874 120.268L125.843 97.6973L112.812 105.222V120.27H138.876L138.874 120.268Z" fill="#544E9C"/>
<path fill-rule="evenodd" clip-rule="evenodd" d="M37.0069 104.869L24.4273 97.6055L11.8477 119.394H37.0069V104.869Z" fill="#544E9C"/>
<path fill-rule="evenodd" clip-rule="evenodd" d="M138.013 46.5527H112.856V61.0775L125.434 68.341L138.013 46.5527Z" fill="#544E9C"/>
<path d="M54.9535 94.518C53.0907 94.518 51.4698 94.2267 50.0908 93.6441C48.733 93.0616 47.6548 92.1877 46.8584 91.0249C46.0832 89.8409 45.665 88.375 45.6063 86.6296C45.5875 85.8145 45.5781 84.9805 45.5781 84.1254C45.5781 83.2703 45.5875 82.3894 45.6063 81.5343C45.665 79.8077 46.0808 78.3512 46.8584 77.1673C47.6548 75.9833 48.7401 75.0906 50.119 74.4892C51.498 73.8667 53.1071 73.5566 54.9512 73.5566C56.7953 73.5566 58.3762 73.8667 59.7552 74.4892C61.1341 75.0906 62.2194 75.9833 63.0158 77.1673C63.8122 78.3512 64.2279 79.8054 64.2679 81.5343C64.3078 82.3894 64.3266 83.2515 64.3266 84.1254C64.3266 84.9993 64.3078 85.8145 64.2679 86.6296C64.2092 88.3774 63.784 89.8409 62.9876 91.0249C62.2124 92.19 61.1341 93.0616 59.7552 93.6441C58.3974 94.2267 56.7953 94.518 54.9512 94.518H54.9535ZM54.9535 89.5684C55.7687 89.5684 56.4382 89.3264 56.9621 88.8402C57.4859 88.3351 57.7584 87.5411 57.7772 86.4534C57.8171 85.6195 57.8359 84.8137 57.8359 84.0362C57.8359 83.2586 57.8171 82.434 57.7772 81.6189C57.7584 80.9001 57.6222 80.3081 57.3708 79.8429C57.1382 79.3778 56.807 79.0372 56.3818 78.8234C55.9731 78.6096 55.4985 78.5039 54.9559 78.5039C54.4132 78.5039 53.927 78.6096 53.4994 78.8234C53.0719 79.0372 52.7336 79.3755 52.4799 79.8429C52.2473 80.3081 52.1205 80.9001 52.1017 81.6189C52.0829 82.434 52.0735 83.2398 52.0735 84.0362C52.0735 84.8325 52.0829 85.6171 52.1017 86.4534C52.1416 87.5411 52.4118 88.3351 52.9168 88.8402C53.4407 89.3241 54.1196 89.5684 54.9535 89.5684ZM68.0711 94.2267C67.8785 94.2267 67.7023 94.1586 67.5473 94.0224C67.3922 93.8673 67.3147 93.6841 67.3147 93.4703V74.6044C67.3147 74.3906 67.3922 74.2168 67.5473 74.0805C67.7023 73.9255 67.8785 73.8479 68.0711 73.8479H82.3351C82.5489 73.8479 82.7321 73.9255 82.8872 74.0805C83.0422 74.2168 83.1197 74.3906 83.1197 74.6044V78.0388C83.1197 78.2314 83.0422 78.4076 82.8872 78.5627C82.7321 78.7177 82.5489 78.7952 82.3351 78.7952H73.3403V81.6776H81.6962C81.9099 81.6776 82.0932 81.7551 82.2482 81.9102C82.4032 82.0464 82.4808 82.2203 82.4808 82.434V85.5772C82.4808 85.791 82.4032 85.9742 82.2482 86.1292C82.0932 86.2655 81.9099 86.3336 81.6962 86.3336H73.3403V89.2747H82.57C82.7838 89.2747 82.967 89.3523 83.1221 89.5073C83.2771 89.6624 83.3546 89.8456 83.3546 90.0594V93.4656C83.3546 93.6794 83.2771 93.8626 83.1221 94.0177C82.967 94.1539 82.7838 94.222 82.57 94.222H68.0711V94.2267ZM87.0898 94.2267C86.8972 94.2267 86.721 94.1586 86.5659 94.0224C86.4109 93.8673 86.3334 93.6841 86.3334 93.4703V74.6044C86.3334 74.3906 86.4109 74.2168 86.5659 74.0805C86.721 73.9255 86.8972 73.8479 87.0898 73.8479H96.3759C98.1425 73.8479 99.5872 74.0805 100.715 74.5456C101.84 75.0108 102.676 75.6803 103.219 76.5541C103.764 77.428 104.034 78.5039 104.034 79.7866C104.034 80.4467 103.898 81.0387 103.628 81.5625C103.376 82.0676 103.066 82.4951 102.695 82.8428C102.326 83.174 101.976 83.416 101.647 83.571C102.404 83.9023 103.064 84.4637 103.628 85.2601C104.192 86.0353 104.471 86.9303 104.471 87.9381C104.471 89.2959 104.161 90.4423 103.538 91.3725C102.937 92.3051 102.054 93.0122 100.889 93.4985C99.7446 93.9824 98.3375 94.2267 96.6672 94.2267H87.0898ZM92.5938 89.8315H96.0001C96.6602 89.8315 97.1464 89.6389 97.4565 89.2489C97.7666 88.8425 97.9217 88.3938 97.9217 87.9099C97.9217 87.426 97.7572 86.9679 97.426 86.5991C97.0971 86.2115 96.6202 86.0165 96.0001 86.0165H92.5938V89.8291V89.8315ZM92.5938 81.7387H95.7088C96.3313 81.7387 96.787 81.5649 97.076 81.2148C97.3673 80.8648 97.5129 80.4584 97.5129 79.9933C97.5129 79.5282 97.3673 79.1194 97.076 78.7717C96.7847 78.4217 96.3289 78.2479 95.7088 78.2479H92.5938V81.7411V81.7387Z" fill="#323333"/>
<path d="M158.052 54.7804H144.836C143.292 54.7804 141.811 55.3938 140.719 56.4856C139.627 57.5775 139.014 59.0583 139.014 60.6024V73.8183" fill="white"/>
<path d="M115.726 20.8382V25.6705C115.726 27.9866 116.646 30.2079 118.284 31.8456C119.921 33.4834 122.143 34.4035 124.459 34.4035C126.003 34.4035 127.484 35.0168 128.576 36.1087C129.667 37.2005 130.281 38.6814 130.281 40.2254C130.281 43.4275 132.901 46.0474 136.103 46.0474C137.647 46.0474 139.128 45.4341 140.22 44.3422C141.311 43.2504 141.925 41.7695 141.925 40.2254C141.925 37.0234 144.545 34.4035 147.747 34.4035H156.975" fill="white"/>
<path d="M127.37 75.0118V63.5134C127.37 61.9693 126.756 60.4885 125.665 59.3966C124.573 58.3048 123.092 57.6914 121.548 57.6914C120.004 57.6914 118.523 57.078 117.431 55.9862C116.339 54.8944 115.726 53.4135 115.726 51.8694V48.9584C115.726 47.4143 115.112 45.9335 114.021 44.8417C112.929 43.7498 111.448 43.1364 109.904 43.1364H101.316" fill="white"/>
<path d="M130.281 75.1574C146.358 75.1574 159.391 62.1244 159.391 46.0474C159.391 29.9705 146.358 16.9375 130.281 16.9375C114.204 16.9375 101.171 29.9705 101.171 46.0474C101.171 62.1244 114.204 75.1574 130.281 75.1574Z" fill="white"/>
<path d="M158.052 54.7804H144.836C143.292 54.7804 141.811 55.3938 140.719 56.4856C139.627 57.5775 139.014 59.0583 139.014 60.6024V73.8183M115.726 20.8382V25.6705C115.726 27.9866 116.646 30.2079 118.284 31.8456C119.921 33.4834 122.143 34.4035 124.459 34.4035C126.003 34.4035 127.484 35.0168 128.576 36.1087C129.667 37.2005 130.281 38.6814 130.281 40.2254C130.281 43.4275 132.901 46.0474 136.103 46.0474C137.647 46.0474 139.128 45.4341 140.22 44.3422C141.311 43.2504 141.925 41.7695 141.925 40.2254C141.925 37.0234 144.545 34.4035 147.747 34.4035H156.975M127.37 75.0118V63.5134C127.37 61.9693 126.756 60.4885 125.665 59.3966C124.573 58.3048 123.092 57.6914 121.548 57.6914C120.004 57.6914 118.523 57.078 117.431 55.9862C116.339 54.8944 115.726 53.4135 115.726 51.8694V48.9584C115.726 47.4143 115.112 45.9335 114.021 44.8417C112.929 43.7498 111.448 43.1364 109.904 43.1364H101.316M159.391 46.0474C159.391 62.1244 146.358 75.1574 130.281 75.1574C114.204 75.1574 101.171 62.1244 101.171 46.0474C101.171 29.9705 114.204 16.9375 130.281 16.9375C146.358 16.9375 159.391 29.9705 159.391 46.0474Z" stroke="#492E98" stroke-width="2.76685" stroke-linecap="round" stroke-linejoin="round"/>
</svg>
