<svg width="148" height="166" viewBox="0 0 148 166" fill="none" xmlns="http://www.w3.org/2000/svg">
<g style="mix-blend-mode:multiply">
<path d="M68.4489 0.00533924L4.98828 36.6445L23.0818 67.9835L86.5424 31.3443L68.4489 0.00533924Z" fill="#8883BE"/>
</g>
<g style="mix-blend-mode:multiply">
<path d="M36.187 45.4473H0V118.726H36.187V45.4473Z" fill="#8883BE"/>
</g>
<path fill-rule="evenodd" clip-rule="evenodd" d="M10.2695 45.4473L23.2273 67.8917L36.1851 60.4094V45.4473H10.2695Z" fill="#544E9C"/>
<g style="mix-blend-mode:multiply">
<path d="M78.7146 0.000833797L60.6211 31.3398L124.082 67.979L142.175 36.64L78.7146 0.000833797Z" fill="#8883BE"/>
</g>
<g style="mix-blend-mode:multiply">
<path d="M124.534 97.1479L61.0732 133.787L79.1667 165.126L142.627 128.487L124.534 97.1479Z" fill="#8883BE"/>
</g>
<g style="mix-blend-mode:multiply">
<path d="M23.6755 97.0653L5.58203 128.404L69.0427 165.043L87.1362 133.704L23.6755 97.0653Z" fill="#8883BE"/>
</g>
<path fill-rule="evenodd" clip-rule="evenodd" d="M73.5818 8.89648L86.5396 31.3409L73.5818 38.8231L60.624 31.3409L73.5818 8.89648Z" fill="#544E9C"/>
<path fill-rule="evenodd" clip-rule="evenodd" d="M74.1814 156.147L61.2236 133.703L74.1814 126.221L87.1392 133.703L74.1814 156.147Z" fill="#544E9C"/>
<g style="mix-blend-mode:multiply">
<path d="M147.763 46.3164H111.576V119.595H147.763V46.3164Z" fill="#8883BE"/>
</g>
<path fill-rule="evenodd" clip-rule="evenodd" d="M137.492 119.595L124.534 97.1504L111.576 104.633V119.597H137.494L137.492 119.595Z" fill="#544E9C"/>
<path fill-rule="evenodd" clip-rule="evenodd" d="M36.1953 104.282L23.686 97.0586L11.1768 118.725H36.1953V104.282Z" fill="#544E9C"/>
<path fill-rule="evenodd" clip-rule="evenodd" d="M136.635 46.2891H111.619V60.7326L124.126 67.9556L136.635 46.2891Z" fill="#544E9C"/>
<path d="M54.0408 93.9888C52.1883 93.9888 50.5765 93.6991 49.2052 93.1198C47.855 92.5404 46.7828 91.6715 45.9909 90.5151C45.22 89.3378 44.8042 87.8801 44.7458 86.1444C44.7271 85.3339 44.7178 84.5046 44.7178 83.6543C44.7178 82.8039 44.7271 81.9279 44.7458 81.0776C44.8042 79.3607 45.2177 77.9123 45.9909 76.735C46.7828 75.5576 47.862 74.6699 49.2333 74.0719C50.6045 73.4529 52.2047 73.1445 54.0384 73.1445C55.8722 73.1445 57.4443 73.4529 58.8155 74.0719C60.1868 74.6699 61.266 75.5576 62.0579 76.735C62.8498 77.9123 63.2633 79.3583 63.303 81.0776C63.3427 81.9279 63.3614 82.7853 63.3614 83.6543C63.3614 84.5233 63.3427 85.3339 63.303 86.1444C63.2446 87.8824 62.8218 89.3378 62.0299 90.5151C61.259 91.6738 60.1868 92.5404 58.8155 93.1198C57.4653 93.6991 55.8722 93.9888 54.0384 93.9888H54.0408ZM54.0408 89.0668C54.8513 89.0668 55.5171 88.8262 56.038 88.3426C56.559 87.8404 56.8299 87.0508 56.8486 85.9692C56.8883 85.14 56.907 84.3387 56.907 83.5655C56.907 82.7923 56.8883 81.9723 56.8486 81.1617C56.8299 80.4469 56.6945 79.8582 56.4445 79.3957C56.2132 78.9332 55.8839 78.5945 55.461 78.3819C55.0546 78.1693 54.5827 78.0642 54.0431 78.0642C53.5035 78.0642 53.0199 78.1693 52.5948 78.3819C52.1696 78.5945 51.8332 78.9308 51.5809 79.3957C51.3497 79.8582 51.2235 80.4469 51.2049 81.1617C51.1862 81.9723 51.1768 82.7736 51.1768 83.5655C51.1768 84.3574 51.1862 85.1376 51.2049 85.9692C51.2446 87.0508 51.5132 87.8404 52.0154 88.3426C52.5364 88.8239 53.2115 89.0668 54.0408 89.0668ZM67.085 93.6991C66.8934 93.6991 66.7182 93.6314 66.5641 93.4959C66.4099 93.3417 66.3328 93.1595 66.3328 92.9469V74.1864C66.3328 73.9738 66.4099 73.801 66.5641 73.6655C66.7182 73.5113 66.8934 73.4342 67.085 73.4342H81.2692C81.4818 73.4342 81.664 73.5113 81.8182 73.6655C81.9723 73.801 82.0494 73.9738 82.0494 74.1864V77.6016C82.0494 77.7932 81.9723 77.9684 81.8182 78.1226C81.664 78.2768 81.4818 78.3538 81.2692 78.3538H72.3246V81.2201H80.6338C80.8464 81.2201 81.0286 81.2972 81.1828 81.4514C81.3369 81.5869 81.414 81.7597 81.414 81.9723V85.0979C81.414 85.3105 81.3369 85.4927 81.1828 85.6469C81.0286 85.7824 80.8464 85.8501 80.6338 85.8501H72.3246V88.7748H81.5028C81.7154 88.7748 81.8976 88.8519 82.0518 89.0061C82.2059 89.1602 82.283 89.3424 82.283 89.555V92.9422C82.283 93.1548 82.2059 93.337 82.0518 93.4912C81.8976 93.6267 81.7154 93.6944 81.5028 93.6944H67.085V93.6991ZM85.9973 93.6991C85.8057 93.6991 85.6305 93.6314 85.4763 93.4959C85.3222 93.3417 85.2451 93.1595 85.2451 92.9469V74.1864C85.2451 73.9738 85.3222 73.801 85.4763 73.6655C85.6305 73.5113 85.8057 73.4342 85.9973 73.4342H95.2315C96.9882 73.4342 98.4248 73.6655 99.5461 74.128C100.665 74.5905 101.497 75.2563 102.036 76.1253C102.578 76.9943 102.847 78.0642 102.847 79.3396C102.847 79.9961 102.711 80.5847 102.443 81.1057C102.193 81.6079 101.884 82.0331 101.515 82.3788C101.149 82.7082 100.801 82.9488 100.473 83.103C101.226 83.4323 101.882 83.9906 102.443 84.7825C103.003 85.5534 103.281 86.4435 103.281 87.4456C103.281 88.7958 102.973 89.9358 102.354 90.8609C101.756 91.7883 100.878 92.4914 99.7189 92.9749C98.5813 93.4562 97.182 93.6991 95.5211 93.6991H85.9973ZM91.4705 89.3284H94.8577C95.5141 89.3284 95.9977 89.1369 96.306 88.7491C96.6144 88.345 96.7686 87.8988 96.7686 87.4176C96.7686 86.9364 96.6051 86.4808 96.2757 86.1141C95.9486 85.7286 95.4744 85.5347 94.8577 85.5347H91.4705V89.3261V89.3284ZM91.4705 81.2809H94.5681C95.1871 81.2809 95.6403 81.108 95.9276 80.7599C96.2173 80.4119 96.3621 80.0077 96.3621 79.5452C96.3621 79.0827 96.2173 78.6762 95.9276 78.3305C95.6379 77.9824 95.1848 77.8095 94.5681 77.8095H91.4705V81.2832V81.2809Z" fill="#323333"/>
</svg>
