<svg width="160" height="166" viewBox="0 0 160 166" fill="none" xmlns="http://www.w3.org/2000/svg">
<g style="mix-blend-mode:multiply">
<path d="M68.4495 0.00518417L4.98828 36.6445L23.0819 67.9837L86.5432 31.3443L68.4495 0.00518417Z" fill="#8883BE"/>
</g>
<g style="mix-blend-mode:multiply">
<path d="M36.1873 45.4492H0V118.728H36.1873V45.4492Z" fill="#8883BE"/>
</g>
<path fill-rule="evenodd" clip-rule="evenodd" d="M10.2695 45.4492L23.2274 67.8937L36.1854 60.4114V45.4492H10.2695Z" fill="#544E9C"/>
<g style="mix-blend-mode:multiply">
<path d="M78.7138 0.00070198L60.6201 31.3398L124.081 67.9792L142.175 36.64L78.7138 0.00070198Z" fill="#8883BE"/>
</g>
<g style="mix-blend-mode:multiply">
<path d="M124.534 97.1497L61.0732 133.789L79.1669 165.128L142.628 128.489L124.534 97.1497Z" fill="#8883BE"/>
</g>
<g style="mix-blend-mode:multiply">
<path d="M23.6757 97.0652L5.58203 128.404L69.0432 165.044L87.1369 133.705L23.6757 97.0652Z" fill="#8883BE"/>
</g>
<path fill-rule="evenodd" clip-rule="evenodd" d="M73.5829 8.89648L86.5408 31.341L73.5829 38.8233L60.625 31.341L73.5829 8.89648Z" fill="#544E9C"/>
<path fill-rule="evenodd" clip-rule="evenodd" d="M74.1816 156.147L61.2236 133.703L74.1816 126.221L87.1395 133.703L74.1816 156.147Z" fill="#544E9C"/>
<g style="mix-blend-mode:multiply">
<path d="M147.764 46.3164H111.577V119.595H147.764V46.3164Z" fill="#8883BE"/>
</g>
<path fill-rule="evenodd" clip-rule="evenodd" d="M137.493 119.595L124.535 97.1504L111.577 104.633V119.597H137.495L137.493 119.595Z" fill="#544E9C"/>
<path fill-rule="evenodd" clip-rule="evenodd" d="M36.1956 104.282L23.6862 97.0586L11.1768 118.725H36.1956V104.282Z" fill="#544E9C"/>
<path fill-rule="evenodd" clip-rule="evenodd" d="M136.637 46.2891H111.62V60.7327L124.127 67.9557L136.637 46.2891Z" fill="#544E9C"/>
<path d="M54.0408 93.9889C52.1884 93.9889 50.5765 93.6992 49.2053 93.1199C47.8551 92.5405 46.7828 91.6715 45.9909 90.5152C45.22 89.3378 44.8042 87.8802 44.7458 86.1445C44.7271 85.3339 44.7178 84.5046 44.7178 83.6543C44.7178 82.804 44.7271 81.928 44.7458 81.0777C44.8042 79.3607 45.2177 77.9124 45.9909 76.735C46.7828 75.5576 47.8621 74.67 49.2333 74.0719C50.6046 73.4529 52.2047 73.1445 54.0385 73.1445C55.8723 73.1445 57.4444 73.4529 58.8157 74.0719C60.1869 74.67 61.2662 75.5576 62.0581 76.735C62.85 77.9124 63.2635 79.3584 63.3032 81.0777C63.3429 81.928 63.3616 82.7853 63.3616 83.6543C63.3616 84.5233 63.3429 85.3339 63.3032 86.1445C63.2448 87.8825 62.822 89.3378 62.03 90.5152C61.2592 91.6739 60.1869 92.5405 58.8157 93.1199C57.4655 93.6992 55.8723 93.9889 54.0385 93.9889H54.0408ZM54.0408 89.0669C54.8514 89.0669 55.5172 88.8263 56.0381 88.3427C56.5591 87.8405 56.8301 87.0509 56.8487 85.9693C56.8885 85.14 56.9071 84.3388 56.9071 83.5655C56.9071 82.7923 56.8885 81.9724 56.8487 81.1618C56.8301 80.4469 56.6946 79.8583 56.4446 79.3957C56.2133 78.9332 55.884 78.5945 55.4611 78.3819C55.0547 78.1693 54.5828 78.0642 54.0432 78.0642C53.5036 78.0642 53.02 78.1693 52.5948 78.3819C52.1697 78.5945 51.8333 78.9309 51.581 79.3957C51.3497 79.8583 51.2236 80.4469 51.2049 81.1618C51.1862 81.9724 51.1769 82.7736 51.1769 83.5655C51.1769 84.3574 51.1862 85.1377 51.2049 85.9693C51.2446 87.0509 51.5133 87.8405 52.0155 88.3427C52.5364 88.8239 53.2116 89.0669 54.0408 89.0669ZM67.0852 93.6992C66.8936 93.6992 66.7184 93.6315 66.5643 93.496C66.4101 93.3418 66.333 93.1596 66.333 92.947V74.1864C66.333 73.9738 66.4101 73.801 66.5643 73.6655C66.7184 73.5113 66.8936 73.4342 67.0852 73.4342H81.2695C81.4821 73.4342 81.6643 73.5113 81.8185 73.6655C81.9727 73.801 82.0498 73.9738 82.0498 74.1864V77.6017C82.0498 77.7932 81.9727 77.9684 81.8185 78.1226C81.6643 78.2768 81.4821 78.3539 81.2695 78.3539H72.3249V81.2202H80.6341C80.8467 81.2202 81.0289 81.2973 81.1831 81.4514C81.3373 81.5869 81.4144 81.7598 81.4144 81.9724V85.098C81.4144 85.3105 81.3373 85.4928 81.1831 85.6469C81.0289 85.7824 80.8467 85.8502 80.6341 85.8502H72.3249V88.7749H81.5031C81.7157 88.7749 81.8979 88.852 82.0521 89.0061C82.2063 89.1603 82.2834 89.3425 82.2834 89.5551V92.9423C82.2834 93.1549 82.2063 93.3371 82.0521 93.4913C81.8979 93.6268 81.7157 93.6945 81.5031 93.6945H67.0852V93.6992ZM85.9976 93.6992C85.8061 93.6992 85.6309 93.6315 85.4767 93.496C85.3225 93.3418 85.2454 93.1596 85.2454 92.947V74.1864C85.2454 73.9738 85.3225 73.801 85.4767 73.6655C85.6309 73.5113 85.8061 73.4342 85.9976 73.4342H95.2319C96.9886 73.4342 98.4253 73.6655 99.5466 74.128C100.666 74.5905 101.497 75.2563 102.037 76.1253C102.579 76.9943 102.847 78.0642 102.847 79.3397C102.847 79.9961 102.712 80.5848 102.443 81.1057C102.193 81.6079 101.885 82.0331 101.516 82.3788C101.149 82.7082 100.801 82.9488 100.474 83.103C101.226 83.4324 101.883 83.9907 102.443 84.7826C103.004 85.5535 103.282 86.4435 103.282 87.4457C103.282 88.7959 102.974 89.9359 102.354 90.8609C101.756 91.7883 100.878 92.4915 99.7194 92.975C98.5818 93.4563 97.1825 93.6992 95.5216 93.6992H85.9976ZM91.4709 89.3285H94.8582C95.5146 89.3285 95.9981 89.1369 96.3065 88.7492C96.6149 88.345 96.769 87.8989 96.769 87.4176C96.769 86.9364 96.6055 86.4809 96.2761 86.1141C95.9491 85.7287 95.4749 85.5348 94.8582 85.5348H91.4709V89.3262V89.3285ZM91.4709 81.2809H94.5685C95.1875 81.2809 95.6407 81.108 95.9281 80.76C96.2177 80.4119 96.3626 80.0078 96.3626 79.5452C96.3626 79.0827 96.2177 78.6762 95.9281 78.3305C95.6384 77.9824 95.1852 77.8096 94.5685 77.8096H91.4709V81.2832V81.2809Z" fill="#323333"/>
<circle cx="129.474" cy="46.3174" r="29.1435" fill="white" stroke="#93F993" stroke-width="2.76562"/>
<path d="M128.104 52.8712L123.062 47.8292M128.104 52.8712C130.451 51.9784 132.703 50.8523 134.826 49.5099M128.104 52.8712V61.2745C128.104 61.2745 133.196 60.3502 134.826 57.9132C136.641 55.1905 134.826 49.5099 134.826 49.5099M123.062 47.8292C123.956 45.509 125.082 43.2848 126.423 41.1906C128.381 38.0595 131.108 35.4815 134.344 33.7018C137.58 31.922 140.53 31.9169 144.223 31.9398C144.223 36.5112 143.599 43.6276 134.826 49.5099M123.062 47.8292H114.658C114.658 47.8292 115.583 42.7368 118.02 41.1066C120.742 39.2915 126.423 41.1066 126.423 41.1066M117.332 53.5588C114.811 55.6764 113.971 61.9621 113.971 61.9621C113.971 61.9621 120.256 61.1218 122.374 58.6008C123.567 57.189 123.55 55.021 122.223 53.71C121.569 53.0865 120.709 52.7262 119.806 52.6983C118.904 52.6704 118.023 52.9768 117.332 53.5588Z" stroke="#492E98" stroke-width="2.76562" stroke-linecap="round" stroke-linejoin="round"/>
</svg>
