<svg width="161" height="165" viewBox="0 0 161 165" fill="none" xmlns="http://www.w3.org/2000/svg">
<path d="M68.3972 0.00770187L4.98438 36.6191L23.0643 67.9344L86.4771 31.323L68.3972 0.00770187Z" fill="#8883BE"/>
<path d="M36.1598 45.416H0V118.639H36.1598V45.416Z" fill="#8883BE"/>
<path fill-rule="evenodd" clip-rule="evenodd" d="M10.2617 45.416L23.2098 67.8434L36.1578 60.3668V45.416H10.2617Z" fill="#544E9C"/>
<path d="M78.6561 0.00113317L60.5762 31.3164L123.989 67.9278L142.069 36.6126L78.6561 0.00113317Z" fill="#8883BE"/>
<path d="M124.442 97.0761L61.0293 133.688L79.1092 165.003L142.522 128.391L124.442 97.0761Z" fill="#8883BE"/>
<path d="M23.659 96.9933L5.5791 128.309L68.992 164.92L87.0719 133.605L23.659 96.9933Z" fill="#8883BE"/>
<path fill-rule="evenodd" clip-rule="evenodd" d="M73.5262 8.89062L86.4742 31.318L73.5262 38.7946L60.5781 31.318L73.5262 8.89062Z" fill="#544E9C"/>
<path fill-rule="evenodd" clip-rule="evenodd" d="M74.1248 156.031L61.1768 133.604L74.1248 126.127L87.0729 133.604L74.1248 156.031Z" fill="#544E9C"/>
<path d="M147.651 46.2852H111.491V119.508H147.651V46.2852Z" fill="#8883BE"/>
<path fill-rule="evenodd" clip-rule="evenodd" d="M137.387 119.507L124.439 97.0801L111.491 104.557V119.51H137.39L137.387 119.507Z" fill="#544E9C"/>
<path fill-rule="evenodd" clip-rule="evenodd" d="M36.1687 104.204L23.6688 96.9863L11.1689 118.636H36.1687V104.204Z" fill="#544E9C"/>
<path fill-rule="evenodd" clip-rule="evenodd" d="M136.533 46.2578H111.535V60.6904L124.033 67.9079L136.533 46.2578Z" fill="#544E9C"/>
<path d="M54.0025 93.9203C52.1514 93.9203 50.5408 93.6308 49.1706 93.0519C47.8214 92.473 46.75 91.6047 45.9587 90.4492C45.1884 89.2728 44.7729 87.8162 44.7145 86.0819C44.6959 85.2719 44.6865 84.4432 44.6865 83.5936C44.6865 82.7439 44.6959 81.8686 44.7145 81.0189C44.7729 79.3032 45.1861 77.856 45.9587 76.6795C46.75 75.5031 47.8284 74.6161 49.1986 74.0185C50.5688 73.3999 52.1678 73.0918 54.0002 73.0918C55.8325 73.0918 57.4035 73.3999 58.7737 74.0185C60.1439 74.6161 61.2223 75.5031 62.0136 76.6795C62.8049 77.856 63.2181 79.3009 63.2578 81.0189C63.2974 81.8686 63.3161 82.7252 63.3161 83.5936C63.3161 84.4619 63.2974 85.2719 63.2578 86.0819C63.1994 87.8185 62.7769 89.2728 61.9856 90.4492C61.2153 91.607 60.1439 92.473 58.7737 93.0519C57.4245 93.6308 55.8325 93.9203 54.0002 93.9203H54.0025ZM54.0025 89.002C54.8125 89.002 55.4777 88.7616 55.9983 88.2784C56.5188 87.7765 56.7896 86.9876 56.8082 85.9068C56.8479 85.0781 56.8666 84.2775 56.8666 83.5049C56.8666 82.7322 56.8479 81.9129 56.8082 81.1029C56.7896 80.3886 56.6542 79.8004 56.4044 79.3382C56.1733 78.8761 55.8442 78.5376 55.4217 78.3252C55.0156 78.1128 54.544 78.0077 54.0048 78.0077C53.4656 78.0077 52.9824 78.1128 52.5576 78.3252C52.1328 78.5376 51.7966 78.8737 51.5445 79.3382C51.3134 79.8004 51.1874 80.3886 51.1687 81.1029C51.15 81.9129 51.1407 82.7136 51.1407 83.5049C51.1407 84.2962 51.15 85.0758 51.1687 85.9068C51.2084 86.9876 51.4768 87.7765 51.9787 88.2784C52.4992 88.7592 53.1738 89.002 54.0025 89.002ZM67.0369 93.6308C66.8455 93.6308 66.6704 93.5631 66.5164 93.4277C66.3623 93.2737 66.2853 93.0916 66.2853 92.8792V74.1329C66.2853 73.9205 66.3623 73.7477 66.5164 73.6123C66.6704 73.4583 66.8455 73.3812 67.0369 73.3812H81.2104C81.4228 73.3812 81.6049 73.4583 81.759 73.6123C81.913 73.7477 81.9901 73.9205 81.9901 74.1329V77.5455C81.9901 77.7369 81.913 77.912 81.759 78.0661C81.6049 78.2201 81.4228 78.2972 81.2104 78.2972H72.2726V81.1613H80.5755C80.7879 81.1613 80.97 81.2383 81.1241 81.3924C81.2781 81.5278 81.3551 81.7005 81.3551 81.9129V85.0361C81.3551 85.2485 81.2781 85.4306 81.1241 85.5847C80.97 85.7201 80.7879 85.7877 80.5755 85.7877H72.2726V88.7102H81.4438C81.6563 88.7102 81.8383 88.7873 81.9924 88.9413C82.1465 89.0954 82.2235 89.2774 82.2235 89.4899V92.8745C82.2235 93.0869 82.1465 93.269 81.9924 93.4231C81.8383 93.5584 81.6563 93.6261 81.4438 93.6261H67.0369V93.6308ZM85.9349 93.6308C85.7435 93.6308 85.5685 93.5631 85.4144 93.4277C85.2603 93.2737 85.1833 93.0916 85.1833 92.8792V74.1329C85.1833 73.9205 85.2603 73.7477 85.4144 73.6123C85.5685 73.4583 85.7435 73.3812 85.9349 73.3812H95.1622C96.9176 73.3812 98.3531 73.6123 99.4735 74.0745C100.592 74.5367 101.423 75.202 101.962 76.0703C102.503 76.9386 102.772 78.0077 102.772 79.2822C102.772 79.9381 102.636 80.5264 102.368 81.0469C102.118 81.5488 101.81 81.9736 101.441 82.3191C101.075 82.6482 100.727 82.8886 100.4 83.0427C101.152 83.3718 101.808 83.9297 102.368 84.721C102.928 85.4913 103.206 86.3806 103.206 87.382C103.206 88.7312 102.898 89.8703 102.279 90.7947C101.682 91.7214 100.804 92.424 99.6463 92.9072C98.5095 93.388 97.1113 93.6308 95.4516 93.6308H85.9349ZM91.4041 89.2634H94.7887C95.4446 89.2634 95.9278 89.072 96.2359 88.6845C96.5441 88.2807 96.6981 87.8349 96.6981 87.354C96.6981 86.8732 96.5347 86.418 96.2056 86.0515C95.8788 85.6664 95.405 85.4726 94.7887 85.4726H91.4041V89.2611V89.2634ZM91.4041 81.222H94.4993C95.1178 81.222 95.5707 81.0492 95.8578 80.7014C96.1472 80.3536 96.292 79.9498 96.292 79.4876C96.292 79.0254 96.1472 78.6193 95.8578 78.2738C95.5684 77.926 95.1155 77.7533 94.4993 77.7533H91.4041V81.2243V81.222Z" fill="#323333"/>
<circle cx="129.361" cy="45.5598" r="29.7651" fill="white" stroke="#CCD7FF" stroke-width="2.80809"/>
<path d="M113.244 45.5614H145.488M129.366 29.4395V61.6834" stroke="#492E98" stroke-width="2.80523" stroke-linecap="round" stroke-linejoin="round"/>
</svg>
